<svg xmlns="http://www.w3.org/2000/svg" viewBox="0 0 26 26"><defs><style>.cls-1{fill:#fff;}</style></defs><title>cart_icon</title><g id="Layer_2" data-name="Layer 2"><g id="Layer_1-2" data-name="Layer 1"><path class="cls-1" d="M21.68,8,20,1.14A1.5,1.5,0,0,0,17,1.86L18.58,8H7.43L9,1.86A1.5,1.5,0,1,0,6,1.14L4.32,8A4.83,4.83,0,0,0,0,12.81v8.38A4.82,4.82,0,0,0,4.81,26H21.19A4.82,4.82,0,0,0,26,21.19V12.81A4.83,4.83,0,0,0,21.68,8ZM23,21.19A1.81,1.81,0,0,1,21.19,23H4.81A1.81,1.81,0,0,1,3,21.19V12.81A1.81,1.81,0,0,1,4.81,11H21.19A1.81,1.81,0,0,1,23,12.81Z"/></g></g></svg>