<svg xmlns="http://www.w3.org/2000/svg" viewBox="0 0 21.6 26"><defs><style>.cls-1{fill:#fff;}</style></defs><title>log_off_icon</title><g id="Layer_2" data-name="Layer 2"><g id="Layer_1-2" data-name="Layer 1"><path class="cls-1" d="M3,8.65v8.7A5.65,5.65,0,0,0,8.65,23h4.51a1.34,1.34,0,0,1,1.34,1.34v.32A1.34,1.34,0,0,1,13.16,26H8.65A8.65,8.65,0,0,1,0,17.35V8.65A8.65,8.65,0,0,1,8.65,0h4.51A1.34,1.34,0,0,1,14.5,1.34v.32A1.34,1.34,0,0,1,13.16,3H8.65A5.65,5.65,0,0,0,3,8.65Z"/><path class="cls-1" d="M21.6,12.83l0,.34a1.4,1.4,0,0,1-.4.72l-2.38,2.38a1.5,1.5,0,0,1-2.28-1.94H7.2a1.58,1.58,0,0,1-1.66-1.5,1.59,1.59,0,0,1,1.66-1.5h9.3A1.49,1.49,0,0,1,17.72,9a1.48,1.48,0,0,1,1.06.43l2.38,2.38a1.32,1.32,0,0,1,.39.71A1.34,1.34,0,0,1,21.6,12.83Z"/></g></g></svg>