<svg xmlns="http://www.w3.org/2000/svg" viewBox="0 0 26.74 26.75"><defs><style>.cls-1{fill:#fff;stroke:#fff;stroke-miterlimit:10;stroke-width:0.75px;}</style></defs><title>log_in_icon_2</title><g id="Layer_2" data-name="Layer 2"><g id="Layer_1-2" data-name="Layer 1"><path class="cls-1" d="M17.88,15a8,8,0,1,0-9,0A12.72,12.72,0,0,0,.39,26.38h2a10.76,10.76,0,0,1,11-9.89,10.76,10.76,0,0,1,11,9.89h2A12.72,12.72,0,0,0,17.88,15ZM7.29,8.38a6.08,6.08,0,1,1,7.55,5.89,6.09,6.09,0,0,1-2.94,0A6.1,6.1,0,0,1,7.29,8.38Z"/></g></g></svg>