<svg xmlns="http://www.w3.org/2000/svg" viewBox="0 0 50 50"><defs><style>.cls-1{fill:#fff;}</style></defs><title>log_off_icon1</title><g id="Layer_2" data-name="Layer 2"><g id="Layer_1-2" data-name="Layer 1"><rect width="50" height="50"/><path class="cls-1" d="M17.2,20.65v8.7A5.65,5.65,0,0,0,22.85,35h4.51a1.34,1.34,0,0,1,1.34,1.34v.32A1.34,1.34,0,0,1,27.36,38H22.85a8.65,8.65,0,0,1-8.65-8.65v-8.7A8.65,8.65,0,0,1,22.85,12h4.51a1.34,1.34,0,0,1,1.34,1.34v.32A1.34,1.34,0,0,1,27.36,15H22.85A5.65,5.65,0,0,0,17.2,20.65Z"/><path class="cls-1" d="M35.8,24.83l0,.34a1.4,1.4,0,0,1-.4.72L33,28.27a1.5,1.5,0,0,1-2.28-1.94H21.4a1.51,1.51,0,1,1,0-3h9.3A1.49,1.49,0,0,1,31.92,21a1.48,1.48,0,0,1,1.06.43l2.38,2.38a1.32,1.32,0,0,1,.39.71A1.34,1.34,0,0,1,35.8,24.83Z"/></g></g></svg>